<?xml version="1.0" encoding="utf-8"?>
<!-- Generator: Adobe Illustrator 25.2.0, SVG Export Plug-In . SVG Version: 6.00 Build 0)  -->
<svg version="1.1" id="Ebene_1" xmlns="http://www.w3.org/2000/svg" xmlns:xlink="http://www.w3.org/1999/xlink" x="0px" y="0px"
	 viewBox="0 0 512 512" style="enable-background:new 0 0 512 512;" xml:space="preserve">
<rect width="512" height="88.3"/>
<rect x="-158.9" y="158.9" transform="matrix(-1.836970e-16 1 -1 -1.836970e-16 247.1724 158.8965)" width="406.1" height="88.3"/>
<rect x="0" y="423.7" width="512" height="88.3"/>
<rect x="264.8" y="264.8" transform="matrix(6.123234e-17 -1 1 6.123234e-17 158.8965 776.8276)" width="406.1" height="88.3"/>
<rect x="104.7" y="105.9" width="406.1" height="88.3"/>
<rect y="317.8" width="406.1" height="88.3"/>
<rect x="51.7" y="158.9" transform="matrix(-1.836970e-16 1 -1 -1.836970e-16 351.8658 54.2032)" width="194.2" height="88.3"/>
<rect x="264.8" y="264.8" transform="matrix(-1.836970e-16 1 -1 -1.836970e-16 670.8965 -52.9655)" width="194.2" height="88.3"/>
<rect x="104.7" y="211.9" width="300.1" height="88.3"/>
</svg>
