<?xml version="1.0" standalone="no"?>
<!DOCTYPE svg PUBLIC "-//W3C//DTD SVG 20010904//EN"
 "http://www.w3.org/TR/2001/REC-SVG-20010904/DTD/svg10.dtd">
<svg version="1.0" xmlns="http://www.w3.org/2000/svg"
 width="700.000000pt" height="700.000000pt" viewBox="0 0 700.000000 700.000000"
 preserveAspectRatio="xMidYMid meet">
<metadata>
Created by potrace 1.14, written by Peter Selinger 2001-2017
</metadata>
<g transform="translate(0.000000,700.000000) scale(0.100000,-0.100000)"
fill="#000000" stroke="none">
<path d="M2 4224 l3 -2776 2768 0 c1523 0 2771 3 2775 7 4 3 5 581 4 1283 -1
702 -2 1297 -2 1322 l0 46 -1455 -2 -1455 -2 -1 22 c-1 23 -1 208 0 216 1 3
710 5 1576 5 1394 0 1575 -2 1576 -15 0 -8 1 -714 2 -1568 l2 -1552 -50 -1
c-27 0 -1331 -1 -2897 -1 l-2848 -1 0 -603 0 -604 3500 0 3500 0 0 2775 c0
2636 -1 2775 -17 2776 -10 0 -1262 1 -2783 1 l-2765 1 -3 -1330 -2 -1329 1447
1 c797 1 1453 0 1458 -2 7 -2 10 -49 10 -121 l0 -117 -1568 0 c-1387 0 -1567
2 -1568 15 0 8 -1 712 -2 1564 -2 1244 0 1550 11 1553 7 3 1309 6 2895 7
l2882 1 3 603 2 602 -3500 0 -3500 0 2 -2776z"/>
</g>
</svg>
